<svg width="102" height="110" viewBox="0 0 102 110" fill="none" xmlns="http://www.w3.org/2000/svg">
<path d="M72.457 51.7773C71.8266 51.7773 71.2014 51.7999 70.5807 51.8394L69.0195 25.8887H55.9834V19.2633C55.9834 8.64145 47.3419 0 36.7201 0C26.0984 0 17.457 8.64145 17.457 19.2633V25.8887H4.40799L0.433594 97.0557H48.2595C53.4878 104.855 62.3825 110 72.457 110C88.509 110 101.568 96.9407 101.568 80.8887C101.568 64.8366 88.509 51.7773 72.457 51.7773ZM23.9023 19.2633C23.9023 12.1956 29.6523 6.44531 36.7201 6.44531C43.7878 6.44531 49.5381 12.1954 49.5381 19.2633V25.8887H23.9023V19.2633ZM33.6239 45.9239L36.8735 48.0814V58.2497H30.3744V48.0814L33.6239 45.9239ZM7.24887 90.6104L10.5033 32.334H17.457V42.0557H23.9023V32.334H30.4013V40.327L23.9291 44.6239V64.6948H43.3188V44.6239L36.8466 40.327V32.334H49.5381V42.0557H55.9834V32.334H62.9501L64.1919 52.9745C52.1531 56.5452 43.3456 67.7069 43.3456 80.8887C43.3456 84.2965 43.9362 87.5686 45.0171 90.6104H7.24887ZM72.457 103.555C59.9589 103.555 49.7909 93.3868 49.7909 80.8887C49.7909 68.3906 59.9589 58.2227 72.457 58.2227C84.9551 58.2227 95.123 68.3906 95.123 80.8887C95.123 93.3868 84.9551 103.555 72.457 103.555Z" fill="#33302E"/>
<path d="M69.9669 82.1095L63.0145 75.1569L58.457 79.7144L69.9669 91.2244L86.458 74.7333L81.9006 70.1758L69.9669 82.1095Z" fill="#33302E"/>
</svg>
